<?xml version="1.0" encoding="utf-8"?>
<!-- Generator: Adobe Illustrator 22.0.1, SVG Export Plug-In . SVG Version: 6.00 Build 0)  -->
<svg version="1.1" id="Слой_1" xmlns="http://www.w3.org/2000/svg" xmlns:xlink="http://www.w3.org/1999/xlink" x="0px" y="0px"
	 viewBox="0 0 75 65" style="enable-background:new 0 0 75 65;" xml:space="preserve">
<style type="text/css">
	.st0{fill:none;stroke:#79ACF2;stroke-width:2;stroke-linecap:round;stroke-linejoin:round;stroke-miterlimit:10;}
	.st1{fill:none;stroke:#CA79F2;stroke-width:2;stroke-linecap:round;stroke-linejoin:round;stroke-miterlimit:10;}
</style>
<g>
	<path class="st0" d="M64.4,24V3.3c0-0.9-0.8-1.7-1.7-1.7H3.5c-0.9,0-1.7,0.8-1.7,1.7v38.9c0,0.9,0.8,1.7,1.7,1.7h48.3"/>
	<line class="st0" x1="1.8" y1="36" x2="44.1" y2="36"/>
	<polyline class="st0" points="33.7,52.4 24.6,52.4 24.6,44 	"/>
	<line class="st0" x1="20.5" y1="52.4" x2="38.1" y2="52.4"/>
	<path class="st1" d="M48.2,37v-7.9c0-0.9,0.8-1.7,1.7-1.7h21.5c0.9,0,1.7,0.8,1.7,1.7v29.8c0,0.9-0.8,1.7-1.7,1.7H57.5"/>
	<line class="st1" x1="57.5" y1="55.4" x2="73.1" y2="55.4"/>
	<path class="st0" d="M43.2,40.3h10.2c0.9,0,1.7,0.8,1.7,1.7v20.5c0,0.9-0.8,1.7-1.7,1.7H43.2c-0.9,0-1.7-0.8-1.7-1.7V42
		C41.5,41.1,42.2,40.3,43.2,40.3z"/>
	<line class="st1" x1="72.7" y1="30.4" x2="48.3" y2="30.4"/>
	<line class="st0" x1="54.4" y1="60.6" x2="44.8" y2="60.6"/>
	<circle class="st1" cx="60.7" cy="58" r="0.7"/>
</g>
</svg>
