<?xml version="1.0" encoding="utf-8"?>
<!-- Generator: Adobe Illustrator 22.0.1, SVG Export Plug-In . SVG Version: 6.00 Build 0)  -->
<svg version="1.1" id="Слой_1" xmlns="http://www.w3.org/2000/svg" xmlns:xlink="http://www.w3.org/1999/xlink" x="0px" y="0px"
	 viewBox="0 0 65 65" style="enable-background:new 0 0 65 65;" xml:space="preserve">
<style type="text/css">
	.st0{fill:none;stroke:#79ACF2;stroke-width:2;stroke-linecap:round;stroke-linejoin:round;stroke-miterlimit:10;}
	.st1{fill:none;stroke:#CA79F2;stroke-width:2;stroke-linecap:round;stroke-linejoin:round;}
</style>
<g>
	<polyline class="st0" points="53.6,40.3 53.6,52.4 32.6,64.5 11.6,52.4 11.6,40.4 	"/>
	<line class="st0" x1="43.1" y1="22" x2="64.1" y2="34.2"/>
	<line class="st0" x1="1.1" y1="34.2" x2="22.2" y2="22"/>
	<polyline class="st0" points="1.1,22.1 32.6,40.3 64.1,22.1 	"/>
	<polyline class="st0" points="32.6,40.3 22.1,46.3 1.1,34.2 	"/>
	<line class="st0" x1="32.6" y1="40.3" x2="32.6" y2="64.5"/>
	<polyline class="st0" points="32.6,40.3 43.1,46.3 64.1,34.2 	"/>
	<line class="st0" x1="16.9" y1="13" x2="1.1" y2="22.1"/>
	<line class="st0" x1="48.4" y1="13" x2="64.1" y2="22.1"/>
</g>
<g>
	<path class="st1" d="M29.1,22c-4.1-1.4-7-5.3-7-9.9c0-5.8,4.7-10.5,10.5-10.5s10.5,4.7,10.5,10.5c0,4.6-2.9,8.4-7,9.9"/>
	<polyline class="st1" points="36.1,22 36.1,25.4 29.1,25.4 29.1,22 	"/>
	<line class="st1" x1="36.1" y1="29" x2="29.1" y2="29"/>
	<line class="st1" x1="36.1" y1="32.7" x2="29.1" y2="32.7"/>
</g>
</svg>
