<svg xmlns="http://www.w3.org/2000/svg" viewBox="0 0 45.81 48"><defs><style>.cls-1{fill:#ca79f2;}.cls-2{fill:none;stroke:#79acf2;stroke-linecap:round;stroke-linejoin:round;stroke-width:2px;fill-rule:evenodd;}</style></defs><title>iVisa_S</title><g id="Layer_2" data-name="Layer 2"><g id="Layer_1-2" data-name="Layer 1"><path class="cls-1" d="M43.36,2a.39.39,0,0,1,.43.29c.07.2-.12.44-.35.63A63.75,63.75,0,0,0,31,16.52c-4.56,6.74-8.54,13.67-10.54,24.19,0,.12-.44.45-2,.45h0c-3,0-6.89-1.14-7.07-1.86A40.76,40.76,0,0,0,6.65,26.08c-.37-.72-.76-1.48-1.17-2.3-.09-.18.06-.47.16-.63a6.06,6.06,0,0,1,3.79-2.33c.34,0,.42.13.44.17a71.26,71.26,0,0,1,5.67,11.88l.34,1,.45-.93c3.46-7.1,10-14.84,13.54-18.82A102.13,102.13,0,0,1,42.81,2.21.92.92,0,0,1,43.36,2m0-2A2.89,2.89,0,0,0,41.6.62a104,104,0,0,0-13.19,12.1A106.9,106.9,0,0,0,16.17,29a88.46,88.46,0,0,0-4.57-9,2.41,2.41,0,0,0-2.18-1.18c-1.92,0-4.57,1.79-5.49,3.28a2.56,2.56,0,0,0-.25,2.58c.41.83.8,1.59,1.18,2.32A38.67,38.67,0,0,1,9.42,39.65l0,.13c.78,3.12,8.93,3.37,9,3.37,2.38,0,3.72-.7,4-2.07C24.27,31.45,27.72,25,32.68,17.64a61.49,61.49,0,0,1,12-13.16,2.53,2.53,0,0,0,1-2.85A2.39,2.39,0,0,0,43.36,0Z"/><path class="cls-2" d="M32.44,22.55l1.67,18.91a3.11,3.11,0,0,1-2.82,3.36L6.54,47a3.11,3.11,0,0,1-3.36-2.82L1,19.42a3.11,3.11,0,0,1,2.82-3.36h0l19.58-1.73"/></g></g></svg>