<svg id="Layer_1" data-name="Layer 1" xmlns="http://www.w3.org/2000/svg" xmlns:xlink="http://www.w3.org/1999/xlink" viewBox="0 0 230 31.64"><defs><style>.cls-1{fill-rule:evenodd;fill:url(#linear-gradient);}.cls-2{fill:#353535;}</style><linearGradient id="linear-gradient" x1="15.82" y1="31.64" x2="15.82" gradientUnits="userSpaceOnUse"><stop offset="0" stop-color="#0045a6"/><stop offset="1" stop-color="#005fca"/></linearGradient></defs><title>LOGO TL Portal</title><path class="cls-1" d="M13.8,0H31.64V25.31a6.35,6.35,0,0,1-6.33,6.33H0V25.31H0v-19A6.35,6.35,0,0,1,6.33,0H13.8ZM6.89,3.84a3,3,0,1,1-3,3,3,3,0,0,1,3-3h0Zm8.93,0a3,3,0,1,1-3,3,3,3,0,0,1,3-3h0Zm0,8.93a3,3,0,1,1-3,3,3,3,0,0,1,3-3h0Zm0.24,9.17a3,3,0,1,1-3,3,3,3,0,0,1,3-3h0Zm8.69-18.1a3,3,0,1,1-3,3,3,3,0,0,1,3-3h0ZM25,21.95a3,3,0,1,1-3,3,3,3,0,0,1,3-3h0Z"/><path class="cls-2" d="M167.82,22.86h9.27v4.61h-14.8V8.33c0-3,1.18-4.17,4.15-4.17h1.38V22.86h0ZM230,8.61H218.87v4.78h8.74v4.38h-8.74v5.09H230v4.61H213.34V8.31c0-3,1.17-4.14,4.14-4.14H230V8.61h0Zm-21.3-4.44v23.3H204L194.9,11.73l0,15.74h-4.18l0-17.78V8.31c0-3,1.18-4.14,4.16-4.14h1.74l7.94,13.74-0.1-13.74h4.21Zm-22.61,0v23.3h-5.44l0-17.77V8.32c0-2.94,1.13-4.15,4.09-4.15h1.36Z"/><path class="cls-2" d="M56.26,4.17V8.78H50.49V27.47H45V8.78h-5.8V8.25c0-3,1.16-4.07,4.14-4.07h13Z"/><path class="cls-2" d="M64.84,18.23v9.23h-5.5V8.31c0-3,1.17-4.13,4.13-4.13h6.1a13,13,0,0,1,4.55.66A5.85,5.85,0,0,1,77,7.24a7.09,7.09,0,0,1,1.13,3.91,6.2,6.2,0,0,1-4,6l4.3,10.29h-6l-3.59-9.23H64.84Zm0-9.91v5.94h3.34A9,9,0,0,0,70.57,14a2.65,2.65,0,0,0,1.32-1,3,3,0,0,0,.58-1.82,2.84,2.84,0,0,0-.58-1.74,2.38,2.38,0,0,0-1.26-.94,11.75,11.75,0,0,0-2.56-.18H64.84Z"/><path class="cls-2" d="M94.5,4.17l7.3,23.29H95.93l-1.42-4.79H87L85.5,27.47H80.72l5.7-17.84,0.44-1.36C87.61,5.92,89,4.17,91.43,4.17H94.5Zm-6.22,14.2h4.95L90.75,10.2l-2.47,8.17h0Z"/><path class="cls-2" d="M116,4.17h4.78L115.11,22l-0.44,1.36c-0.75,2.35-2.14,4.09-4.57,4.09H107L99.74,4.17h5.87q2.56,8.64,5.18,17.27Q113.4,12.81,116,4.17h0Z"/><path class="cls-2" d="M139.71,8.61H128.61v4.78h8.74v4.39h-8.74v5.09h11.11v4.61H123.07V8.31c0-3,1.18-4.14,4.15-4.14h12.51V8.61h0Z"/><path class="cls-2" d="M149.27,22.86h9.26v4.61H143.74V8.33c0-3,1.17-4.16,4.15-4.16h1.38V22.86h0Z"/></svg>