<?xml version="1.0" encoding="utf-8"?>
<!-- Generator: Adobe Illustrator 22.0.1, SVG Export Plug-In . SVG Version: 6.00 Build 0)  -->
<svg version="1.1" id="Слой_1" xmlns="http://www.w3.org/2000/svg" xmlns:xlink="http://www.w3.org/1999/xlink" x="0px" y="0px"
	 viewBox="0 0 65 65" style="enable-background:new 0 0 65 65;" xml:space="preserve">
<style type="text/css">
	.st0{fill:none;stroke:#000000;stroke-width:0.25;stroke-linecap:round;stroke-linejoin:round;stroke-miterlimit:10;}
	.st1{fill:none;stroke:#79ACF2;stroke-width:2;stroke-linecap:round;stroke-linejoin:round;stroke-miterlimit:10;}
	.st2{fill:none;stroke:#CA79F2;stroke-width:2;stroke-linecap:round;stroke-linejoin:round;}
</style>
<path class="st0" d="M61.4,54"/>
<polygon class="st1" points="32.9,54.5 17.3,63.5 1.8,54.5 1.8,36.5 17.3,27.5 32.9,36.5 "/>
<polyline class="st1" points="32.9,36.5 17.3,45.5 1.8,36.5 "/>
<line class="st1" x1="17.3" y1="45.5" x2="17.3" y2="63.5"/>
<line class="st1" x1="25.1" y1="41" x2="9.6" y2="32"/>
<line class="st1" x1="25.1" y1="41" x2="25.1" y2="45.5"/>
<polygon class="st1" points="64.1,54.5 48.5,63.5 32.9,54.5 32.9,36.5 48.5,27.5 64.1,36.5 "/>
<polyline class="st1" points="64.1,36.5 48.5,45.5 32.9,36.5 "/>
<line class="st1" x1="48.5" y1="45.5" x2="48.5" y2="63.5"/>
<line class="st1" x1="56.3" y1="41" x2="40.7" y2="32"/>
<line class="st1" x1="56.3" y1="41" x2="56.3" y2="45.5"/>
<polygon class="st2" points="48.5,27.5 32.9,36.5 17.3,27.5 17.3,9.5 32.9,0.5 48.5,9.5 "/>
<polyline class="st2" points="48.5,9.5 32.9,18.5 17.3,9.5 "/>
<line class="st2" x1="32.9" y1="18.5" x2="32.9" y2="36.5"/>
<line class="st2" x1="25.1" y1="14" x2="40.7" y2="5"/>
<line class="st2" x1="25.1" y1="14" x2="25.1" y2="18.5"/>
</svg>
