<svg id="_1" data-name="1" xmlns="http://www.w3.org/2000/svg" xmlns:xlink="http://www.w3.org/1999/xlink" viewBox="0 0 47.69 54.15"><defs><style>.cls-1,.cls-3{opacity:0.8;}.cls-1{fill:url(#linear-gradient);}.cls-2{opacity:0.7;fill:url(#linear-gradient-2);}.cls-3{fill:url(#linear-gradient-3);}.cls-4{fill:#fff;fill-rule:evenodd;}</style><linearGradient id="linear-gradient" x1="-80.13" y1="95.81" x2="-121.43" y2="66.88" gradientUnits="userSpaceOnUse"><stop offset="0" stop-color="#1a4ab5"/><stop offset="0.5" stop-color="#90c"/><stop offset="1" stop-color="red"/></linearGradient><linearGradient id="linear-gradient-2" x1="-62.14" y1="95.26" x2="-136.42" y2="53.77" xlink:href="#linear-gradient"/><linearGradient id="linear-gradient-3" x1="-70.96" y1="100.74" x2="-124.07" y2="56.84" xlink:href="#linear-gradient"/></defs><title>TLCMlogo</title><path class="cls-1" d="M-80,67.64l-4.32-2.49-1.49-.86h0l-7.65-4.42h0l-1.5-.86-4.46-2.57a2.82,2.82,0,0,0-2.82,0L-106.65,59l-1.5.86h0l-7.65,4.42h0l-1.49.86-4.37,2.52a2.82,2.82,0,0,0-1.41,2.44V92.29a3.35,3.35,0,0,0,1.67,2.9l4.08,2.35,2.55,1.47,6.63,3.83h0l1.5,0.86,4.55,2.63a2.62,2.62,0,0,0,2.62,0l4.56-2.63,10.67-6.16L-79.9,95a2.81,2.81,0,0,0,1.4-2.43V70.17A2.92,2.92,0,0,0-80,67.64Z" transform="translate(124.65 -54.22)"/><path class="cls-2" d="M-80.2,67.5h0l-9.89-5.71a0.07,0.07,0,0,0-.07,0l-10.57,6.12a0.07,0.07,0,0,0,0,.06V91.13a0.07,0.07,0,0,0,0,.06l13.61,8a0.07,0.07,0,0,0,.07,0l1.31-.76h0l1.49-.86L-79.89,95a2.78,2.78,0,0,0,1.39-2.41V70.45A3.4,3.4,0,0,0-80.2,67.5Z" transform="translate(124.65 -54.22)"/><path class="cls-3" d="M-94.92,59l-4.48-2.58a2.78,2.78,0,0,0-2.78,0L-106.65,59l-10.64,6.14-4.39,2.54a2.78,2.78,0,0,0-1.39,2.41V80.73a0.07,0.07,0,0,0,.11.06l32.72-19a0.07,0.07,0,0,0,0-.13Z" transform="translate(124.65 -54.22)"/><path class="cls-4" d="M-94.78,77.43l-2.82-1.63-2.82-1.63a0.75,0.75,0,0,0-.75,0L-104,75.8l-2.77,1.6a0.75,0.75,0,0,0-.42.67v6.52h0a0.75,0.75,0,0,0,.37.65l2.82,1.63,2.82,1.63a0.75,0.75,0,0,0,.75,0l2.82-1.63,2.77-1.6a0.75,0.75,0,0,0,.42-0.67V78.08h0A0.75,0.75,0,0,0-94.78,77.43Zm-1.12,3.91v2.83l-2.45,1.41L-100.8,87l-2.45-1.41-2.45-1.41V78.51l2.45-1.41,2.45-1.41,2.45,1.41,2.45,1.41v2.83Zm17.43-14.68-20.81-12a3,3,0,0,0-3,0l-20.81,12a3,3,0,0,0-1.52,2.63v24a3,3,0,0,0,1.52,2.63l20.81,12a3,3,0,0,0,3,0l20.81-12A3,3,0,0,0-77,93.32v-24A3,3,0,0,0-78.48,66.66Zm-15-6.78,7.65,4.42-4.94,2.85-1.37-.79,0,0-1.3-.75v-5.7ZM-90,75.26v-6L-85,72.19v6ZM-106.67,59l4.45-2.57a2.77,2.77,0,0,1,2.83,0L-94.94,59v5.7l-5.49-3.17a0.75,0.75,0,0,0-.75,0l-5.49,3.17V59Zm11,7-2.24,1.29,0,0L-100.8,69l-2.93-1.69,0,0L-106,66l5.17-3Zm-12.53-6.16v5.7l-1.3.75-1.41.82-4.93-2.85Zm-14.92,10.25a2.77,2.77,0,0,1,1.42-2.45l4.51-2.44,4.79,2.77-5.34,3.08a0.75,0.75,0,0,0-.42.67v6.47l-5-2.87V70.13Zm11.53-.87v6L-114.49,77h0l-2.14,1.24v-6Zm0,18.17v6l-5.08-2.93v-6l2.14,1.24h0ZM-123.09,77.1l5,2.86v2.77l-5,2.87V77.1Zm1.42,18a2.77,2.77,0,0,1-1.42-2.46V87.32l5-2.86v6.45h0a0.75,0.75,0,0,0,.37.65l5.4,3.12-5,2.88Zm13.51,7.8-7.69-4.44,5-2.88,1.4,0.81,1.3,0.75v5.76Zm13.23,0.86-4.45,2.57a2.77,2.77,0,0,1-2.83,0l-4.45-2.57V98l5.49,3.17a0.75,0.75,0,0,0,.75,0L-94.94,98v5.76Zm-0.71-7.07-5.16,3-5.16-3,5.16-3Zm-4.74-4.46a0.75,0.75,0,0,0-.79,0l-6.27,3.62-1.27-.73-1.34-.77V87h0a0.75,0.75,0,0,0-.37-0.65l-3.31-1.91h0l-2.89-1.67V79.91l2.89-1.67h0l3.24-1.87a0.75,0.75,0,0,0,.44-0.68V68.4l1.34-.77,1.25-.72,2.95,1.7,0,0,3.31,1.91h0a0.74,0.74,0,0,0,.74,0l3.27-1.89,0,0,3-1.72,1.25,0.72,0,0,1.3,0.75v7.29h0a0.75,0.75,0,0,0,.37.65l6.2,3.58v2.87l-6.14,3.54a0.75,0.75,0,0,0-.44.68v7.27l-1.34.77h0l-1.26.73ZM-85,84.5v6L-90,93.41v-6Zm-8.47,18.35V97.09l1.3-.75h0l1.4-.81,5,2.88Zm14.92-10.25A2.77,2.77,0,0,1-79.94,95l-4.33,2.5-5-2.88,5.34-3.08a0.75,0.75,0,0,0,.44-0.68V84.45l5,2.86v5.28Zm0-7-5-2.86V80l5-2.86v8.5Zm0-10.22-5,2.86V71.76h0a0.74,0.74,0,0,0-.37-0.65L-89.24,68l4.94-2.85,4.36,2.52a2.77,2.77,0,0,1,1.42,2.45v5.24Z" transform="translate(124.65 -54.22)"/></svg>