<svg id="_1" data-name="1" xmlns="http://www.w3.org/2000/svg" xmlns:xlink="http://www.w3.org/1999/xlink" viewBox="0 0 47.69 53.95"><defs><style>.cls-1,.cls-3{opacity:0.8;}.cls-1{fill:url(#linear-gradient);}.cls-2{opacity:0.7;fill:url(#linear-gradient-2);}.cls-3{fill:url(#linear-gradient-3);}.cls-4{fill:#fff;}</style><linearGradient id="linear-gradient" x1="88.78" y1="555.36" x2="47.62" y2="526.54" gradientUnits="userSpaceOnUse"><stop offset="0" stop-color="#1a4ab5"/><stop offset="0.5" stop-color="#90c"/><stop offset="1" stop-color="red"/></linearGradient><linearGradient id="linear-gradient-2" x1="106.83" y1="554.85" x2="32.55" y2="513.36" xlink:href="#linear-gradient"/><linearGradient id="linear-gradient-3" x1="98.08" y1="560.42" x2="44.89" y2="516.45" xlink:href="#linear-gradient"/></defs><title>TLExpresslogo</title><path class="cls-1" d="M88.78,527.1l-4.08-2.36-1.49-.86h0l-7.65-4.42h0l-1.5-.86-4.16-2.4a3.4,3.4,0,0,0-3.4,0l-4.16,2.4-1.5.86h0l-7.65,4.42h0l-1.49.86-4.08,2.35a3.4,3.4,0,0,0-1.7,2.95v21.8a3.4,3.4,0,0,0,1.7,2.95l4,2.34,2.55,1.47,6.63,3.83h0l1.5,0.86,4.16,2.4a3.4,3.4,0,0,0,3.4,0l4.16-2.4,10.67-6.16,4-2.33a3.4,3.4,0,0,0,1.7-2.95V530A3.4,3.4,0,0,0,88.78,527.1Z" transform="translate(-44.35 -513.93)"/><path class="cls-2" d="M88.78,527.1h0l-9.92-5.73-10.65,6.17v23.23l13.68,8,1.35-.78h0l1.49-.86,4.33-2.5a2.83,2.83,0,0,0,1.42-2.45V530A3.4,3.4,0,0,0,88.78,527.1Z" transform="translate(-44.35 -513.93)"/><path class="cls-3" d="M74.06,518.6L69.61,516a2.83,2.83,0,0,0-2.83,0l-4.45,2.57-10.64,6.14-4.36,2.52a2.83,2.83,0,0,0-1.42,2.45v10.73l32.95-19.08Z" transform="translate(-44.35 -513.93)"/><path class="cls-4" d="M90.24,526.09L70,514.41a3.6,3.6,0,0,0-3.6,0L46.15,526.09a3.6,3.6,0,0,0-1.8,3.12v23.37a3.6,3.6,0,0,0,1.8,3.12L66.39,567.4a3.6,3.6,0,0,0,3.6,0l20.24-11.69a3.6,3.6,0,0,0,1.8-3.12V529.21A3.6,3.6,0,0,0,90.24,526.09Zm-42.63,1,4.08-2.35,1.49-.86,7.65-4.42h0l1.5-.86,4.16-2.4a3.4,3.4,0,0,1,3.4,0l4.16,2.4,1.5,0.86h0l7.65,4.42,1.49,0.86,4.08,2.35a3.39,3.39,0,0,1,.8.65l-0.1,0-7.07,4.08-13.86-8a0.81,0.81,0,0,0-.82,0L54,531.81l-7.11-4.11A3.39,3.39,0,0,1,47.61,527.1Zm19.74,29-12.64-7.3V534.12l12.65,7.31s0,0,0,0v14.58ZM55.6,532.75l12.54-7.24,12.64,7.3L68.23,540ZM69,541.49l12.57-7.26v14.53L69,556V541.49Zm-6.66,21.8-1.5-.86h0l-6.63-3.83-2.55-1.47-4-2.34a3.4,3.4,0,0,1-1.7-2.95V530a3.4,3.4,0,0,1,.13-0.93l7,4.06v16a0.82,0.82,0,0,0,.41.71l13.87,8V566a3.4,3.4,0,0,1-.86-0.35ZM90.48,535v16.89a3.4,3.4,0,0,1-1.7,2.95l-4,2.33-10.67,6.16-4.16,2.4a3.39,3.39,0,0,1-.91.36V557.9l13.8-8a0.82,0.82,0,0,0,.41-0.71V533.29l7.1-4.1,0.06-.06a3.4,3.4,0,0,1,.12.91V535Z" transform="translate(-44.35 -513.93)"/></svg>