<svg id="_1" data-name="1" xmlns="http://www.w3.org/2000/svg" xmlns:xlink="http://www.w3.org/1999/xlink" viewBox="0 0 47.69 54.13"><defs><style>.cls-1,.cls-3{opacity:0.8;}.cls-1{fill:url(#linear-gradient);}.cls-2{opacity:0.7;fill:url(#linear-gradient-2);}.cls-3{fill:url(#linear-gradient-3);}.cls-4{fill:#fff;}</style><linearGradient id="linear-gradient" x1="-81.05" y1="268.9" x2="-122.35" y2="239.98" gradientUnits="userSpaceOnUse"><stop offset="0" stop-color="#1a4ab5"/><stop offset="0.5" stop-color="#90c"/><stop offset="1" stop-color="red"/></linearGradient><linearGradient id="linear-gradient-2" x1="-63.06" y1="268.35" x2="-137.34" y2="226.87" xlink:href="#linear-gradient"/><linearGradient id="linear-gradient-3" x1="-71.88" y1="273.84" x2="-124.99" y2="229.94" xlink:href="#linear-gradient"/></defs><title>TLRateShopperlogo</title><path class="cls-1" d="M-80.88,240.74l-4.32-2.49-1.49-.86h0L-94.34,233h0l-1.5-.86-4.46-2.57a2.82,2.82,0,0,0-2.82,0l-4.45,2.57-1.5.86h0l-7.65,4.42h0l-1.49.86-4.37,2.52a2.82,2.82,0,0,0-1.41,2.44v22.17a3.35,3.35,0,0,0,1.67,2.9l4.08,2.35,2.55,1.47,6.63,3.83h0l1.5,0.86,4.55,2.63a2.62,2.62,0,0,0,2.62,0l4.56-2.63,10.67-6.16,4.34-2.51a2.81,2.81,0,0,0,1.4-2.43V243.27A2.92,2.92,0,0,0-80.88,240.74Z" transform="translate(125.55 -227.31)"/><path class="cls-2" d="M-81.12,240.6h0L-91,234.89a0.07,0.07,0,0,0-.07,0L-101.65,241a0.07,0.07,0,0,0,0,.06v23.14a0.07,0.07,0,0,0,0,.06l13.61,8a0.07,0.07,0,0,0,.07,0l1.31-.76h0l1.49-.86,4.36-2.52a2.78,2.78,0,0,0,1.39-2.41V243.55A3.4,3.4,0,0,0-81.12,240.6Z" transform="translate(125.55 -227.31)"/><path class="cls-3" d="M-95.84,232.1l-4.48-2.58a2.78,2.78,0,0,0-2.78,0l-4.48,2.58-10.64,6.14-4.39,2.54a2.78,2.78,0,0,0-1.39,2.41v10.64a0.07,0.07,0,0,0,.11.06l32.72-19a0.07,0.07,0,0,0,0-.13Z" transform="translate(125.55 -227.31)"/><path class="cls-4" d="M-79.38,239.74l-20.81-12a3,3,0,0,0-3,0l-20.81,12-0.11.08h0a2.78,2.78,0,0,0-1.39,2.4h0s0,0.09,0,.14v24A3,3,0,0,0-124,269l1,0.59c0.15,0.11.3,0.22,0.46,0.31l5.3,3.06a0.71,0.71,0,0,0,.14,0l13.89,8a3,3,0,0,0,3,0l20.81-12a3,3,0,0,0,1.52-2.63v-24A3,3,0,0,0-79.38,239.74Zm-4.94,14.61,4.9-2.83v5.66Zm-0.88-16.11,4.36,2.52a2.83,2.83,0,0,1,1.42,2.45v6.58l-6.37,3.68v-7.85a0.75,0.75,0,0,0-.37-0.65l-6.8-3.92,6.32-3.65Zm-23.72-5.36,1.35-.78,4.45-2.57a2.83,2.83,0,0,1,2.83,0l4.45,2.57,1.26,0.73v7.37l-6.8-3.92a0.75,0.75,0,0,0-.75,0l-6.8,3.92v-7.32Zm7.17,4.9,14.46,8.28v16.58L-101.75,271l-14.37-8.22V246.05Zm8.66,1.63v-5.72l5,2.86Zm-17.32-.06-4.86-2.81,4.86-2.81v5.61Zm0,1.7-6.8,3.92a0.75,0.75,0,0,0-.37.65v7.85l-6.37-3.68v-6.58a2.83,2.83,0,0,1,1.42-2.45l4.36-2.52,1.44-.83ZM-119,254.41l-5,2.9v-5.79Zm0.73,16.22-4.33-2.5a2.83,2.83,0,0,1-1.42-2.46V259l6.37-3.68v7.85a0.75,0.75,0,0,0,.37.65l6.8,3.92-6.37,3.68Zm7.83-1.16v5.68l-4.92-2.84Zm1.49,6.52v-7.38l0,0,6.76,3.9a0.75,0.75,0,0,0,.75,0l6.8-3.92V276l-6.2,3.58a2.73,2.73,0,0,1-2.19-.14Zm15.83-6.7,5.12,3-5.12,3v-5.91Zm6.55,2.06L-93,267.63l6.8-3.92a0.75,0.75,0,0,0,.37-0.65v-7.85l6.37,3.68v6.77a2.74,2.74,0,0,1-1,2.15Z" transform="translate(125.55 -227.31)"/><path class="cls-4" d="M-105.86,260.88a0.75,0.75,0,0,0,.65.37h7a0.75,0.75,0,0,0,.65-0.37l3.5-6.07a0.75,0.75,0,0,0,0-.75l-3.5-6.07a0.75,0.75,0,0,0-.65-0.37h-7a0.75,0.75,0,0,0-.65.37l-3.5,6.07a0.75,0.75,0,0,0,0,.75Zm1.08-11.76h6.14l3.07,5.32-3.07,5.32h-6.14l-3.07-5.32Z" transform="translate(125.55 -227.31)"/></svg>