<svg id="Layer_1" data-name="Layer 1" xmlns="http://www.w3.org/2000/svg" viewBox="0 0 15.01 16.01"><defs><style>.cls-1{fill:#5a7084;}</style></defs><title>User</title><path class="cls-1" d="M14.67,16H0.34A0.35,0.35,0,0,1,0,15.66c0-1.91.23-2.34,1.76-3.26l3.76-2.26V10A3.57,3.57,0,0,1,3.95,8,3,3,0,0,1,3,5.71a1.26,1.26,0,0,1,.41-1.25C3.49,2.6,3.79,0,7.5,0s4,2.6,4.12,4.45A1.26,1.26,0,0,1,12,5.71c0,0.71-.43,2.06-1,2.27a3.58,3.58,0,0,1-1.57,2v0.13l3.77,2.37c1.5,0.95,1.75,1.36,1.76,3a0.37,0.37,0,0,1,0,.09A0.35,0.35,0,0,1,14.67,16Zm-14-.71H14.32c0-1.19-.2-1.39-1.42-2.16L9,10.67a0.36,0.36,0,0,1-.16-0.31V9.83A0.36,0.36,0,0,1,9,9.53a2.87,2.87,0,0,0,1.48-2,0.34,0.34,0,0,1,.37-0.29h0a3.12,3.12,0,0,0,.52-1.58,1.61,1.61,0,0,0-.06-0.63h0L11.21,5A0.35,0.35,0,0,1,11,4.72c-0.14-2.35-.46-4-3.46-4S4.18,2.37,4,4.72A0.35,0.35,0,0,1,3.79,5l-0.1,0a1.74,1.74,0,0,0-.05.62,3.12,3.12,0,0,0,.52,1.58h0a0.34,0.34,0,0,1,.37.29A2.87,2.87,0,0,0,6,9.53a0.36,0.36,0,0,1,.16.3v0.52a0.36,0.36,0,0,1-.17.31L2.1,13C0.88,13.75.7,14,.68,15.3Z"/></svg>