<svg xmlns="http://www.w3.org/2000/svg" viewBox="0 0 48 48"><defs><style>.cls-1,.cls-2{fill:none;stroke-linecap:round;stroke-linejoin:round;stroke-width:2px;}.cls-1{stroke:#79acf2;}.cls-2{stroke:#ca79f2;}</style></defs><title>Audit_S</title><g id="Layer_2" data-name="Layer 2"><g id="Layer_1-2" data-name="Layer 1"><path class="cls-1" d="M34.41,43.12v1A2.91,2.91,0,0,1,31.51,47H3.91A2.91,2.91,0,0,1,1,44.09V3.91A2.91,2.91,0,0,1,3.91,1h27.6a2.91,2.91,0,0,1,2.91,2.91V14.59"/><line class="cls-1" x1="1" y1="8.41" x2="34.41" y2="8.41"/><circle class="cls-1" cx="6.08" cy="4.78" r="0.73"/><circle class="cls-1" cx="10.44" cy="4.78" r="0.73"/><circle class="cls-1" cx="14.8" cy="4.78" r="0.73"/><polyline class="cls-1" points="4.74 25.71 4.74 15.84 4.74 11.96 31.04 11.96 31.04 12.65"/><line class="cls-1" x1="11.61" y1="25.71" x2="4.74" y2="25.71"/><line class="cls-1" x1="12.5" y1="30.36" x2="4.74" y2="30.36"/><line class="cls-1" x1="14.07" y1="34.91" x2="4.74" y2="34.91"/><line class="cls-1" x1="17.71" y1="38.93" x2="4.74" y2="38.93"/><path class="cls-2" d="M46.62,42.08,39,34.45a2.09,2.09,0,0,0-2.42,0l-1-1.06a11.17,11.17,0,1,0-2.11,2.11l1,1.06a2.09,2.09,0,0,0,0,2.42l7.64,7.62c.75.75,2.38.34,3.64-.92S47.38,42.83,46.62,42.08Z"/><polyline class="cls-2" points="22.01 26.58 25.8 30.36 33.21 22.95"/></g></g></svg>