<svg id="Layer_1" data-name="Layer 1" xmlns="http://www.w3.org/2000/svg" viewBox="0 0 35.36 40"><defs><style>.cls-1{fill:#465e7b;}</style></defs><title>LogoKB</title><path class="cls-1" d="M34,9L19,0.36a2.67,2.67,0,0,0-2.67,0L1.34,9A2.67,2.67,0,0,0,0,11.34V28.66A2.67,2.67,0,0,0,1.34,31l2.09,1.21h0l12.9,7.45a2.67,2.67,0,0,0,2.67,0L34,31a2.67,2.67,0,0,0,1.34-2.31V11.34A2.67,2.67,0,0,0,34,9ZM23.14,4.11h0l5.67,3.27L29.91,8l3,1.75A2.52,2.52,0,0,1,34.2,12v13.6l-5.18-3V13.8a0.6,0.6,0,0,0-.3-0.52L21.26,9V3L22,3.47ZM17.68,31.7L7.54,25.85V14.15L17.68,8.3l10.14,5.85v11.7Zm-1.26-30a2.52,2.52,0,0,1,2.52,0L20,2.32V8.27L18,7.07a0.6,0.6,0,0,0-.61,0l-2,1.18V2.31ZM1.16,23.17V12A2.52,2.52,0,0,1,2.42,9.77L5.44,8l1.11-.64,5.67-3.27h0l1.11-.64L14.12,3V9L6.64,13.27a0.6,0.6,0,0,0-.3.52v8.76l-5.18,3V23.17Zm0,4.94V27l5.18-3V26.2a0.6,0.6,0,0,0,.3.52L8.81,28,3.65,31,2.42,30.3A2.52,2.52,0,0,1,1.16,28.11ZM22,36.6l-3.09,1.78a2.52,2.52,0,0,1-2.52,0L13.33,36.6,12.22,36h0L7.31,33.12,5.42,32l-0.57-.33,5.16-3,7.36,4.25a0.61,0.61,0,0,0,.61,0l7.36-4.25,5.2,3-0.6.35Zm10.91-6.3L31.75,31l-5.2-3,2.17-1.25A0.6,0.6,0,0,0,29,26.2V24l5.18,3v1.16A2.52,2.52,0,0,1,32.94,30.3Z"/></svg>