<svg xmlns="http://www.w3.org/2000/svg" viewBox="0 0 55 48.76"><defs><style>.cls-1,.cls-2{fill:none;stroke-linecap:round;stroke-linejoin:round;stroke-width:2px;}.cls-1{stroke:#79acf2;}.cls-2{stroke:#ca79f2;}</style></defs><title>TechSupport_M</title><g id="Layer_2" data-name="Layer 2"><g id="Layer_1-2" data-name="Layer 1"><path class="cls-1" d="M42.33,4.78H52.41A1.59,1.59,0,0,1,54,6.38V39a1.59,1.59,0,0,1-1.59,1.59H2.59A1.59,1.59,0,0,1,1,39V6.38A1.59,1.59,0,0,1,2.59,4.78H12.67"/><line class="cls-1" x1="1.06" y1="33.84" x2="50.36" y2="33.84"/><line class="cls-1" x1="20.34" y1="47.76" x2="20.34" y2="40.6"/><line class="cls-1" x1="34.66" y1="40.6" x2="34.66" y2="47.76"/><line class="cls-1" x1="16.13" y1="47.76" x2="38.87" y2="47.76"/><path class="cls-2" d="M16.74,17.87a11.38,11.38,0,0,0,1,2.42l-1.23,1.54a1.27,1.27,0,0,0,.09,1.68l2.11,2.12a1.26,1.26,0,0,0,1.68.09l1.53-1.22a11.17,11.17,0,0,0,2.51,1l.23,2a1.27,1.27,0,0,0,1.25,1.13h3a1.27,1.27,0,0,0,1.25-1.13l.22-1.91a11.28,11.28,0,0,0,2.72-1.09l1.43,1.23a1.27,1.27,0,0,0,1.68-.09l2.11-2.12a1.26,1.26,0,0,0,.09-1.68l-1.15-1.47a11,11,0,0,0,1.11-2.64l1.82-.21a1.26,1.26,0,0,0,1.13-1.25v-3A1.27,1.27,0,0,0,40.2,12l-1.75-.21a11.11,11.11,0,0,0-1.06-2.63L38.47,7.8a1.27,1.27,0,0,0-.09-1.68L36.26,4a1.26,1.26,0,0,0-1.72-.09L33.26,5a11.13,11.13,0,0,0-2.72-1.15l-.2-1.72A1.27,1.27,0,0,0,29.06,1h-3a1.26,1.26,0,0,0-1.25,1.13l-.25,1.72A11.1,11.1,0,0,0,21.75,5L20.42,3.94A1.27,1.27,0,0,0,18.74,4L16.62,6.15a1.26,1.26,0,0,0-.09,1.68l1.15,1.45a10.9,10.9,0,0,0-1.05,2.62l-1.82.21a1.27,1.27,0,0,0-1.14,1.29v3a1.26,1.26,0,0,0,1.13,1.25Zm15-7.53a6,6,0,1,1-4.14-1.64h0"/></g></g></svg>