<svg id="_1" data-name="1" xmlns="http://www.w3.org/2000/svg" xmlns:xlink="http://www.w3.org/1999/xlink" viewBox="0 0 56.57 64"><defs><style>.cls-1,.cls-3{opacity:0.8;}.cls-1{fill:url(#linear-gradient);}.cls-2{opacity:0.7;fill:url(#linear-gradient-2);}.cls-3{fill:url(#linear-gradient-3);}.cls-4{fill:#fff;}</style><linearGradient id="linear-gradient" x1="-307.31" y1="665.63" x2="-356.13" y2="631.44" gradientUnits="userSpaceOnUse"><stop offset="0" stop-color="#1a4ab5"/><stop offset="0.5" stop-color="#90c"/><stop offset="1" stop-color="red"/></linearGradient><linearGradient id="linear-gradient-2" x1="-285.89" y1="665.03" x2="-374.01" y2="615.81" xlink:href="#linear-gradient"/><linearGradient id="linear-gradient-3" x1="-296.27" y1="671.64" x2="-359.36" y2="619.48" xlink:href="#linear-gradient"/></defs><title>TLHotellogo</title><path class="cls-1" d="M-307.3,632.11l-4.84-2.79-1.77-1h0l-9.08-5.24h0l-1.78-1-4.94-2.85a4,4,0,0,0-4,0l-4.94,2.85-1.78,1h0l-9.08,5.24h0l-1.77,1-4.84,2.79a4,4,0,0,0-2,3.5v25.86a4,4,0,0,0,2,3.5l4.8,2.77,3,1.75,7.86,4.54h0l1.78,1,4.94,2.85a4,4,0,0,0,4,0l4.94-2.85,12.66-7.31,4.8-2.77a4,4,0,0,0,2-3.5V635.61A4,4,0,0,0-307.3,632.11Z" transform="translate(360.01 -616.48)"/><path class="cls-2" d="M-307.3,632.11h0l-11.77-6.8-12.63,7.31v27.56l16.23,9.5,1.6-.92h0l1.77-1,5.14-3a3.36,3.36,0,0,0,1.68-2.91V635.61A4,4,0,0,0-307.3,632.11Z" transform="translate(360.01 -616.48)"/><path class="cls-3" d="M-324.76,622l-5.28-3a3.36,3.36,0,0,0-3.36,0l-5.27,3-12.62,7.29-5.18,3a3.36,3.36,0,0,0-1.68,2.91v12.73l39.08-22.63Z" transform="translate(360.01 -616.48)"/><path class="cls-4" d="M-305.57,630.92l-24-13.86a4.27,4.27,0,0,0-4.27,0l-24,13.86a4.27,4.27,0,0,0-2.14,3.7v27.73a4.27,4.27,0,0,0,2.14,3.7l24,13.86a4.27,4.27,0,0,0,4.27,0l24-13.86a4.27,4.27,0,0,0,2.14-3.7V634.62A4.27,4.27,0,0,0-305.57,630.92Zm0.29,4.69v0.71l-7.65,4.47-2.75-1.55,0-3.23,7.53-4.41,0.88,0.51A4,4,0,0,1-305.29,635.61Zm-6.86-6.29,2,1.17-7.07,4.13a1,1,0,0,0-.48.85l0.05,4.36a1,1,0,0,0,.49.83l3.72,2.1a1,1,0,0,0,.48.13,1,1,0,0,0,.49-0.13l7.15-4.18v6.82l-10.81,6.29a1,1,0,0,0-.45.59,1,1,0,0,0,.1.74l2.83,4.84L-330.73,648V628.07l2.91,5a1,1,0,0,0,.59.45,1,1,0,0,0,.25,0,1,1,0,0,0,.49-0.13l10.66-6.26,1.93,1.12ZM-338.68,622l4.94-2.85a4,4,0,0,1,4,0l4.94,2.85,1.78,1h0l5.21,3-8.87,5.21-4.12-7.1a1,1,0,0,0-.05-0.12l0,0a0.94,0.94,0,0,0-.17-0.26l-0.07-.06a0.9,0.9,0,0,0-.14-0.12l-0.08,0-0.14,0a1,1,0,0,0-.22,0h-0.06l-0.12,0h0l-0.13,0-0.17.07,0,0,0,0,0,0-0.13.12a0.94,0.94,0,0,0-.15.22l0,0.05-4.09,7.2-9.07-5.14,5.32-3.07h0Zm-10.85,6.26,1.81-1,10.9,6.18a1,1,0,0,0,.48.13,1,1,0,0,0,.84-0.49l2.82-5V648l-15.63,9-1.44.81L-347,653a1,1,0,0,0,.09-0.74,1,1,0,0,0-.46-0.58l-10.8-6.13V639l7.12,4a1,1,0,0,0,.48.13,1,1,0,0,0,.5-0.14l3.74-2.23a1,1,0,0,0,.47-0.84l-0.06-4.27a1,1,0,0,0-.49-0.83l-7.27-4.12,2.37-1.37Zm-6.61,3.82,0.53-.3,7.77,4.41,0,3.15-2.78,1.66-7.58-4.3v-1.12A4,4,0,0,1-356.14,632.11Zm4.8,35.63-4.8-2.77a4,4,0,0,1-2-3.5V647.75l9,5.11-3.91,6.89a1,1,0,0,0-.26.64,1,1,0,0,0,1,1h8.16l0,10.48-4.1-2.37Zm21.63,10.16a4,4,0,0,1-4,0l-0.74-.43v-8.8l2.72-1.59,2.81,1.6v8.78Zm2.7-1.56v-8.23a1,1,0,0,0-.49-0.84l-3.79-2.15a1,1,0,0,0-1,0l-3.69,2.15a1,1,0,0,0-.48.84v8.24l-2.26-1.31-1.78-1h0l-1.82-1.05,0-12.56a1,1,0,0,0-.28-0.68,1,1,0,0,0-.68-0.29h-5.48l17-9.76,17.27,9.93-5.83,0h0a1,1,0,0,0-.68.28,1,1,0,0,0-.28.69V673l-3.53,2Zm21.72-20.74v5.87a4,4,0,0,1-2,3.5l-4.8,2.77-7.19,4.15V661.52l8.38,0h0a1,1,0,0,0,.49-0.13,0.94,0.94,0,0,0,.33-0.35l0,0a0.93,0.93,0,0,0,.05-0.16l0-.05a0.94,0.94,0,0,0-.23-0.93l-4.11-7,9-5.24v8Z" transform="translate(360.01 -616.48)"/></svg>