<svg id="_1" data-name="1" xmlns="http://www.w3.org/2000/svg" xmlns:xlink="http://www.w3.org/1999/xlink" viewBox="0 0 47.87 53.96"><defs><style>.cls-1,.cls-3{opacity:0.8;}.cls-1{fill:url(#linear-gradient);}.cls-2{opacity:0.7;fill:url(#linear-gradient-2);}.cls-3{fill:url(#linear-gradient-3);}.cls-4{fill:#fff;}</style><linearGradient id="linear-gradient" x1="-160.44" y1="510.82" x2="-201.6" y2="482" gradientUnits="userSpaceOnUse"><stop offset="0" stop-color="#1a4ab5"/><stop offset="0.5" stop-color="#90c"/><stop offset="1" stop-color="red"/></linearGradient><linearGradient id="linear-gradient-2" x1="-142.39" y1="510.31" x2="-216.67" y2="468.82" xlink:href="#linear-gradient"/><linearGradient id="linear-gradient-3" x1="-151.14" y1="515.88" x2="-204.33" y2="471.92" xlink:href="#linear-gradient"/></defs><title>Logo_all_svgTLReputation</title><path class="cls-1" d="M-160.44,482.56l-4.08-2.35-1.49-.86h0l-7.65-4.42h0l-1.5-.86-4.16-2.4a3.4,3.4,0,0,0-3.4,0l-4.16,2.4-1.5.86h0l-7.65,4.42h0l-1.49.86-4.08,2.35a3.4,3.4,0,0,0-1.7,2.95v21.8a3.4,3.4,0,0,0,1.7,2.95l4,2.34,2.55,1.47,6.63,3.83h0l1.5,0.86,4.16,2.4a3.4,3.4,0,0,0,3.4,0l4.16-2.4,10.67-6.16,4-2.33a3.4,3.4,0,0,0,1.7-2.95v-21.8A3.4,3.4,0,0,0-160.44,482.56Z" transform="translate(204.96 -469.34)"/><path class="cls-2" d="M-160.44,482.56h0l-9.92-5.73L-181,483v23.23l13.68,8,1.35-.78h0l1.49-.86,4.33-2.5a2.83,2.83,0,0,0,1.42-2.45V485.51A3.4,3.4,0,0,0-160.44,482.56Z" transform="translate(204.96 -469.34)"/><path class="cls-3" d="M-175.16,474.07l-4.45-2.57a2.83,2.83,0,0,0-2.83,0l-4.45,2.57-10.64,6.14-4.36,2.52a2.83,2.83,0,0,0-1.42,2.45v10.73l32.94-19.08Z" transform="translate(204.96 -469.34)"/><path class="cls-4" d="M-157.17,484.65a3.6,3.6,0,0,0-1.8-3.12l-20-11.65a4,4,0,0,0-4,0l-20.06,11.65a3.6,3.6,0,0,0-1.8,3.12l-0.1,22.1c0,2.28.51,3.59,1.94,4.51l20.2,11.57a3.6,3.6,0,0,0,3.6,0l20.14-11.51a4,4,0,0,0,2-3.47Zm-4.38,26.22-2.93,1.69-4.16,2.4-0.11-23.86,10,5.7,0,9.8v0.68a3.4,3.4,0,0,1-1.62,2.9Zm-3-30.7,4.08,2.35a3.4,3.4,0,0,1,1.7,2.95v9.47L-179.51,483l10-5.75,3.54,2ZM-195,514l-2.35-1.36-4.44-2.58a3.4,3.4,0,0,1-1.5-2.82v-9.54l20.78,11.88-10.06,5.82Zm12.45-17.77-9.09,5.25V491Zm-8.18-6.61,8.92-5.15v10.3Zm-0.1,13.27,9-5.21v10.41Zm-0.85-14.61V476.8l3.31-1.91h0l1.5-.86,4.16-2.4a3.4,3.4,0,0,1,3.4,0l4.16,2.4,1.5,0.86h0l2.48,1.43Zm11.5-3.8,9,5.19-9,5.24V484.52Zm0,13.38,8.9,5.08-8.9,5.14V497.9Zm0.71-1.48,9.09-5.31v10.5Zm-23.83-6v-4.91a3.4,3.4,0,0,1,1.7-2.95l4.08-2.35,1.49-.86,2.71-1.57,0,23.89-10-5.79v-5.47Zm24,30.74a3.4,3.4,0,0,1-3.4,0l-4.16-2.4-1.5-.86h0l-2.58-1.49,20.64-12.06,0.05,11.59-4.89,2.82Z" transform="translate(204.96 -469.34)"/></svg>