<svg id="_1" data-name="1" xmlns="http://www.w3.org/2000/svg" xmlns:xlink="http://www.w3.org/1999/xlink" viewBox="0 0 47.69 53.95"><defs><style>.cls-1,.cls-3{opacity:0.8;}.cls-1{fill:url(#linear-gradient);}.cls-2{opacity:0.7;fill:url(#linear-gradient-2);}.cls-3{fill:url(#linear-gradient-3);}.cls-4{fill:#fff;}</style><linearGradient id="linear-gradient" x1="-81.97" y1="192.57" x2="-123.06" y2="163.8" gradientUnits="userSpaceOnUse"><stop offset="0" stop-color="#1a4ab5"/><stop offset="0.5" stop-color="#90c"/><stop offset="1" stop-color="red"/></linearGradient><linearGradient id="linear-gradient-2" x1="-63.95" y1="192.06" x2="-138.1" y2="150.65" xlink:href="#linear-gradient"/><linearGradient id="linear-gradient-3" x1="-72.68" y1="197.63" x2="-125.78" y2="153.74" xlink:href="#linear-gradient"/></defs><title>TLWebPMSlogo</title><path class="cls-1" d="M-82,164.36L-86,162l-1.49-.86h0l-7.64-4.41h0l-1.49-.86-4.16-2.4a3.4,3.4,0,0,0-3.4,0l-4.15,2.4-1.49.86h0l-7.64,4.41h0L-119,162l-4.07,2.35a3.4,3.4,0,0,0-1.7,2.94v21.76a3.4,3.4,0,0,0,1.7,2.94l4,2.33,2.54,1.47,6.62,3.82h0l1.49,0.86,4.15,2.4a3.4,3.4,0,0,0,3.4,0l4.16-2.4L-86,194.34l4-2.33a3.4,3.4,0,0,0,1.7-2.94V167.31A3.4,3.4,0,0,0-82,164.36Z" transform="translate(126.36 -151.17)"/><path class="cls-2" d="M-82,164.36h0l-9.91-5.72-10.63,6.16V188l13.66,8,1.35-.78h0l1.49-.86,4.32-2.5a2.83,2.83,0,0,0,1.41-2.45V167.31A3.4,3.4,0,0,0-82,164.36Z" transform="translate(126.36 -151.17)"/><path class="cls-3" d="M-96.66,155.88l-4.44-2.56a2.83,2.83,0,0,0-2.83,0l-4.44,2.56L-119,162l-4.36,2.51a2.83,2.83,0,0,0-1.41,2.45v10.71l32.89-19Z" transform="translate(126.36 -151.17)"/><path class="cls-4" d="M-80.47,163.34l-20.24-11.69a3.6,3.6,0,0,0-3.6,0l-20.24,11.69a3.6,3.6,0,0,0-1.8,3.12v23.37a3.6,3.6,0,0,0,1.8,3.12l20.24,11.69a3.6,3.6,0,0,0,3.6,0L-80.47,193a3.6,3.6,0,0,0,1.8-3.12V166.46A3.6,3.6,0,0,0-80.47,163.34Zm-6.92,22.95,4.33-7.49a0.75,0.75,0,0,0,0-.75l-4.33-7.49,7-4.05a3.39,3.39,0,0,1,.1.81v21.76a3.39,3.39,0,0,1-.22,1.2Zm-37.15,4a3.39,3.39,0,0,1-.22-1.2V167.31a3.39,3.39,0,0,1,.1-0.81l7,4.05L-122,178a0.75,0.75,0,0,0,0,.75l4.33,7.49Zm4.09-11.85,4.11-7.12,5.35,3.09v8.06l-5.35,3.09Zm4.86-8.42,4.11-7.12h8.22v6.17l-7,4Zm5.35,13.74,7,4V194h-8.22l-4.11-7.12Zm0.75-1.3v-8.06l7-4,7,4v8.06l-7,4Zm7.73-19.56h8.22l4.11,7.12-5.35,3.09-7-4v-6.17Zm0,24.89,7-4,5.35,3.09L-93.55,194h-8.22v-6.17Zm7.73-5.33v-8.06l5.35-3.09,4.11,7.12-4.11,7.12Zm-2.62-26.57,1.49,0.86h0l7.64,4.41L-86,162l4.07,2.35a3.39,3.39,0,0,1,.92.79l-7.09,4.1-4.33-7.49a0.75,0.75,0,0,0-.65-0.37h-8.65v-8.27a3.39,3.39,0,0,1,.95.37Zm-26.4,8.48L-119,162l1.49-.86,7.64-4.41h0l1.49-.86,4.15-2.4a3.39,3.39,0,0,1,.95-0.37v8.27h-8.65a0.75,0.75,0,0,0-.65.38l-4.33,7.49-7.1-4.1A3.39,3.39,0,0,1-123.06,164.36Zm14.69,36.13-1.49-.86h0l-6.62-3.82-2.54-1.47-4-2.33a3.39,3.39,0,0,1-.65-0.49l6.82-3.94,4.33,7.49a0.75,0.75,0,0,0,.65.38h8.65v7.81a3.38,3.38,0,0,1-.95-0.37ZM-86,194.34l-10.65,6.15-4.16,2.4a3.39,3.39,0,0,1-.95.37v-7.81h8.65a0.75,0.75,0,0,0,.65-0.37l4.33-7.49,6.82,3.94A3.39,3.39,0,0,1-82,192Z" transform="translate(126.36 -151.17)"/></svg>